<?xml version="1.0" standalone="no"?>
<!DOCTYPE svg PUBLIC "-//W3C//DTD SVG 20010904//EN"
 "http://www.w3.org/TR/2001/REC-SVG-20010904/DTD/svg10.dtd">
<svg version="1.0" xmlns="http://www.w3.org/2000/svg"
 width="1920.000000pt" height="1080.000000pt" viewBox="0 0 1920.000000 1080.000000"
 preserveAspectRatio="xMidYMid meet">

<g transform="translate(0.000000,1080.000000) scale(0.100000,-0.100000)"
fill="#000000" stroke="none">
<path d="M0 5400 l0 -5400 9600 0 9600 0 0 5400 0 5400 -9600 0 -9600 0 0
-5400z m13129 3238 c-6 -13 -18 -30 -25 -39 -13 -14 -11 -16 18 -14 18 0 46 9
62 20 15 10 47 20 70 20 22 1 53 5 69 10 21 6 27 4 27 -9 0 -21 44 -21 96 -1
l39 16 -24 -21 c-34 -29 -21 -34 38 -14 56 20 73 14 46 -16 -18 -20 -17 -20
11 -22 16 -1 46 0 66 1 30 2 37 -1 32 -13 -5 -12 3 -14 52 -9 41 4 55 3 50 -5
-5 -8 8 -9 43 -5 27 3 66 2 86 -1 30 -6 35 -10 30 -27 -5 -15 -2 -19 19 -19
14 0 26 -3 26 -8 0 -13 66 -28 94 -21 16 5 39 3 54 -4 58 -24 192 -109 186
-118 -5 -8 9 -13 28 -10 15 2 218 -81 218 -89 0 -5 -8 -14 -17 -19 -15 -8 -11
-10 19 -11 31 0 38 -5 50 -30 8 -18 20 -30 32 -30 26 0 56 -28 49 -46 -3 -8 0
-14 5 -14 6 0 23 -11 38 -25 15 -14 34 -25 42 -25 12 0 12 -3 2 -15 -10 -13
-7 -17 22 -29 19 -8 40 -22 48 -30 7 -9 24 -16 39 -16 33 0 61 -31 54 -59 -3
-12 -1 -21 6 -21 6 0 16 -11 21 -25 5 -13 23 -31 40 -40 16 -8 30 -20 30 -25
0 -6 6 -10 14 -10 17 0 76 -66 76 -85 0 -8 11 -25 25 -39 13 -13 27 -37 31
-52 4 -15 15 -35 25 -45 10 -10 16 -25 13 -32 -3 -8 2 -20 10 -27 9 -7 13 -16
11 -21 -3 -4 8 -15 24 -24 28 -14 61 -50 61 -67 0 -5 -6 -8 -14 -8 -29 0 -26
-20 6 -36 43 -22 43 -21 27 -40 -11 -14 -10 -17 5 -26 14 -8 16 -17 12 -44 -6
-28 -2 -37 24 -60 16 -15 30 -33 30 -40 0 -6 7 -14 15 -18 22 -8 34 -47 23
-76 -8 -20 -5 -28 13 -43 l23 -18 -39 -34 -38 -34 27 -10 c21 -9 26 -17 26
-46 0 -20 -4 -44 -9 -53 -7 -13 -1 -23 25 -42 18 -14 32 -32 31 -40 -1 -8 5
-15 13 -14 11 1 15 -7 14 -25 -2 -39 -3 -40 -23 -34 -12 3 -20 -2 -24 -16 -3
-12 0 -21 6 -21 7 0 5 -5 -3 -10 -13 -8 -13 -11 -1 -19 10 -6 4 -12 -23 -22
-34 -12 -49 -29 -26 -29 19 0 10 -31 -12 -39 -13 -4 -17 -10 -11 -14 6 -4 9
-15 6 -26 -3 -11 7 -31 26 -52 20 -22 27 -37 21 -43 -16 -16 -12 -43 8 -51 15
-7 13 -9 -8 -14 -20 -6 -25 -13 -24 -38 1 -25 -2 -30 -14 -25 -10 4 -12 7 -4
10 8 2 8 8 -3 18 -16 17 -40 9 -29 -8 5 -7 1 -9 -9 -5 -10 4 -16 2 -14 -6 1
-6 -9 -13 -23 -15 -14 -2 -28 -9 -32 -16 -6 -8 -13 -8 -28 2 -11 6 -29 12 -39
12 -11 0 -22 4 -25 9 -3 5 -15 7 -27 4 -15 -4 -35 10 -82 57 -85 86 -95 91
-149 84 -56 -8 -67 -14 -71 -42 -4 -30 -14 -37 -32 -22 -8 7 -15 8 -15 3 0 -5
12 -16 28 -24 15 -7 41 -23 57 -34 17 -11 32 -21 34 -22 2 -1 -1 -9 -8 -17 -9
-11 -7 -18 14 -34 l25 -20 -23 -6 c-12 -3 -23 -2 -25 3 -2 5 -15 6 -30 2 -26
-7 -72 7 -72 22 0 4 -10 7 -22 7 -13 0 -30 4 -38 10 -9 5 -19 5 -26 -1 -9 -7
-16 -4 -26 8 -13 17 -79 53 -98 53 -6 0 -10 -7 -10 -16 0 -13 3 -14 13 -5 11
8 18 6 33 -11 19 -21 19 -21 0 -11 -10 6 -27 8 -37 6 -11 -3 -19 0 -19 6 0 6
-9 11 -20 11 -11 0 -28 9 -37 20 -10 11 -23 20 -30 20 -7 0 -13 4 -13 9 0 11
-50 44 -57 37 -3 -2 2 -15 11 -28 25 -36 19 -58 -7 -25 -25 30 -52 35 -61 12
-7 -19 3 -45 18 -45 6 0 5 -4 -3 -9 -12 -8 -12 -12 -2 -25 8 -9 17 -16 22 -16
11 0 49 -32 49 -42 0 -10 -64 -7 -71 5 -5 8 -31 13 -83 16 -18 2 28 41 48 41
20 0 20 0 -2 16 -12 8 -37 16 -55 16 -39 1 -83 22 -100 48 -13 23 -33 26 -40
8 -3 -9 -12 -6 -30 11 -27 25 -47 21 -47 -9 0 -10 -5 -22 -12 -26 -7 -4 -8 -3
-4 4 4 7 1 12 -8 12 -9 0 -16 8 -16 18 -1 16 -2 15 -15 -2 -13 -17 -23 -18
-92 -12 -81 7 -109 20 -83 36 10 7 -4 10 -47 10 -44 0 -63 -4 -63 -12 0 -10
-2 -10 -8 0 -9 13 -120 16 -170 5 -27 -6 -24 -29 4 -26 17 1 16 -1 -5 -18 -13
-10 -29 -19 -37 -19 -8 0 -14 -7 -14 -15 0 -8 5 -15 12 -15 9 0 9 -3 1 -11
-17 -17 -53 -2 -46 19 4 9 11 20 17 24 6 5 2 8 -10 8 -15 0 -21 -6 -20 -17 1
-13 -5 -17 -19 -15 -52 9 -135 10 -140 1 -4 -5 -24 -6 -46 -3 -26 4 -39 3 -39
-5 0 -7 -18 -11 -47 -10 -44 1 -46 1 -21 10 17 7 25 15 21 25 -6 17 -7 17 145
45 108 20 121 24 108 37 -13 13 -24 13 -92 -1 -43 -9 -80 -14 -82 -12 -2 2 9
10 25 19 44 24 0 20 -47 -4 -37 -19 -46 -19 -108 -8 -37 6 -71 18 -75 25 -5 7
-12 11 -18 8 -5 -3 -6 1 -3 9 6 17 -31 42 -41 27 -6 -11 -44 -6 -58 8 -6 6 -6
21 1 40 16 46 -4 49 -48 6 l-38 -37 -16 23 c-13 19 -20 22 -34 13 -18 -11
-211 -12 -229 -1 -6 4 -26 -1 -44 -10 -18 -9 -46 -17 -60 -18 -15 -1 -35 -7
-43 -14 -12 -10 -19 -11 -29 -2 -15 12 -71 -12 -102 -43 -19 -19 -40 -17 -40
4 0 31 -24 18 -32 -17 -7 -25 -14 -37 -24 -34 -20 6 -40 5 -74 -3 -20 -5 -25
-4 -17 2 11 7 10 10 -3 16 -28 11 -35 7 -35 -20 0 -17 -6 -28 -19 -31 -10 -3
-33 -24 -50 -48 -18 -25 -37 -42 -44 -39 -7 2 -22 -4 -32 -16 -21 -23 -47 -27
-39 -5 4 8 1 15 -5 15 -6 0 -11 -6 -11 -14 0 -9 -7 -12 -20 -9 -11 3 -20 0
-20 -6 0 -6 -8 -11 -18 -11 -10 0 -28 -7 -40 -16 -20 -14 -23 -14 -28 0 -7 17
-34 22 -34 7 0 -5 -9 -7 -19 -4 -10 3 -28 0 -40 -7 -17 -8 -22 -8 -27 3 -8 21
-71 15 -88 -8 -10 -14 -27 -19 -72 -20 -76 -2 -84 -3 -84 -13 0 -4 30 -13 68
-20 37 -7 94 -25 127 -41 63 -30 135 -92 135 -117 0 -24 -26 -78 -46 -96 -26
-23 -129 -46 -190 -43 -54 2 -157 14 -258 29 -39 6 -39 6 -22 -13 15 -16 19
-42 21 -138 3 -118 11 -152 50 -223 33 -59 77 -183 80 -225 2 -22 4 -42 5 -45
1 -3 3 -14 4 -25 1 -15 10 -21 36 -25 27 -4 36 -10 38 -27 2 -13 10 -23 18
-23 10 0 15 -9 13 -27 -1 -16 -1 -37 0 -48 1 -17 4 -16 21 10 29 44 45 39 41
-13 -2 -40 -1 -43 17 -33 10 5 24 17 31 25 8 9 18 13 23 10 5 -4 23 9 39 27
20 22 32 30 35 22 3 -7 14 -13 25 -13 23 0 26 -32 3 -50 -21 -18 -41 -55 -23
-44 7 4 26 7 40 6 25 -2 28 2 35 40 5 24 7 56 5 73 -2 25 5 58 26 125 4 12 7
11 13 -5 4 -11 11 -20 16 -20 5 0 15 -4 22 -8 17 -12 15 21 -4 58 -8 16 -14
43 -13 60 2 17 0 35 -4 42 -4 6 0 16 8 23 11 9 15 9 15 1 0 -7 5 -9 11 -5 8 4
8 9 0 17 -17 17 -13 26 9 20 15 -4 20 0 20 15 0 12 4 24 10 27 5 3 7 19 3 36
-5 25 -2 31 16 36 19 5 21 10 15 36 -3 17 -7 49 -7 72 -1 38 1 40 34 45 33 5
34 6 32 49 -1 24 -7 49 -12 54 -7 7 -7 14 0 23 7 8 7 14 -1 19 -18 11 -11 23
20 30 17 4 34 15 40 24 5 10 22 24 37 30 15 7 36 23 45 36 16 21 16 27 3 59
l-15 35 30 -11 c17 -5 30 -14 30 -19 0 -15 27 -10 34 6 3 8 10 15 15 15 6 0 8
-6 5 -13 -3 -8 2 -20 11 -27 12 -10 21 -10 45 0 16 7 37 9 46 6 10 -4 33 -9
53 -12 20 -3 44 -11 55 -16 47 -25 307 16 397 63 31 16 65 29 75 29 23 1 52
22 48 35 -5 13 65 44 112 51 22 2 41 9 42 14 4 12 82 13 100 2 23 -15 2 -44
-27 -39 -24 5 -25 4 -6 -9 10 -8 25 -14 33 -14 14 0 41 -27 42 -42 0 -4 -14
-3 -31 2 -38 11 -55 4 -38 -17 8 -9 21 -12 36 -8 23 5 59 -12 98 -48 11 -11
35 -31 53 -45 18 -14 31 -31 28 -38 -3 -7 2 -15 10 -18 20 -7 18 -36 -3 -36
-9 0 -13 3 -10 6 8 8 -53 64 -70 64 -7 0 -16 0 -20 1 -18 2 -12 -21 13 -50 15
-18 33 -30 40 -27 8 3 14 -1 14 -9 0 -8 -4 -15 -8 -15 -5 0 -14 -11 -19 -23
-12 -25 -44 -30 -65 -9 -16 16 -38 15 -38 -2 0 -8 10 -40 22 -71 25 -66 59
-91 81 -61 11 16 15 16 28 4 46 -44 99 -57 85 -22 -12 31 27 28 56 -4 40 -46
35 -63 -7 -22 -42 41 -46 28 -6 -20 16 -20 26 -42 23 -52 -2 -11 -7 -17 -11
-15 -23 13 -120 56 -138 61 -16 5 -23 3 -23 -6 1 -21 23 -43 57 -57 20 -8 30
-18 26 -27 -3 -7 5 -25 16 -40 25 -31 27 -46 6 -38 -8 4 -15 12 -15 19 0 21
-44 60 -69 62 -13 1 -27 6 -30 11 -3 5 -16 12 -28 16 -23 7 -32 26 -13 26 6 0
10 4 10 9 0 13 -50 71 -61 71 -15 0 -10 -22 8 -43 11 -12 19 -37 20 -67 1 -27
7 -58 13 -70 6 -12 9 -25 5 -28 -3 -3 -8 4 -12 16 -11 44 -33 17 -33 -41 0
-42 16 -99 46 -165 27 -60 28 -62 14 -62 -5 0 -10 9 -10 21 0 14 -5 19 -17 17
-13 -2 -17 -11 -15 -32 l4 -28 -26 18 c-14 11 -26 22 -26 26 0 4 -7 14 -16 22
-22 23 -26 57 -8 71 11 8 14 19 10 33 -9 28 -30 29 -23 2 6 -25 -1 -25 -26 -3
-18 17 -19 17 -32 0 -15 -21 -27 -9 -31 32 -2 13 -10 31 -18 40 -15 14 -16 11
-16 -28 0 -42 -1 -43 -18 -28 -10 10 -24 17 -30 17 -19 0 -31 34 -26 76 5 43
-9 75 -25 59 -16 -16 -1 -111 20 -134 11 -11 19 -26 19 -33 0 -7 9 -18 21 -23
26 -13 68 -101 43 -91 -10 4 -14 1 -11 -6 2 -7 12 -13 23 -13 12 0 19 -7 20
-22 1 -12 4 -30 8 -40 5 -10 10 -29 12 -43 2 -14 7 -36 10 -50 4 -14 8 -35 9
-48 4 -29 52 -93 67 -89 12 2 40 -63 32 -72 -2 -3 -15 6 -29 19 l-24 23 -6
-26 c-8 -30 10 -93 30 -104 7 -5 14 -12 14 -18 0 -5 7 -11 15 -13 11 -2 16 4
16 17 0 14 6 21 19 21 12 0 21 9 25 25 4 14 13 25 22 25 10 0 14 8 12 27 -2
21 2 28 22 33 17 4 21 8 12 14 -19 11 -14 26 8 26 11 0 20 4 20 9 0 22 51 59
99 71 44 10 54 17 66 46 8 19 12 41 9 48 -6 15 23 26 69 26 16 0 27 -5 27 -14
0 -18 83 -29 115 -14 18 8 22 14 14 24 -7 8 -7 14 1 19 5 3 10 15 10 26 0 16
5 18 26 13 18 -5 29 -1 38 12 12 16 14 16 30 -9 16 -24 26 -26 75 -18 2 1 -8
12 -22 25 -17 16 -25 31 -21 41 6 14 8 14 26 -1 10 -10 28 -18 39 -19 11 -1
32 -14 47 -28 21 -20 38 -27 68 -27 37 0 42 -3 64 -42 13 -24 36 -58 52 -76
15 -18 28 -39 28 -47 0 -8 9 -19 20 -25 11 -6 17 -16 14 -25 -4 -9 0 -15 10
-15 9 0 16 -2 16 -4 0 -2 3 -12 7 -22 5 -14 3 -16 -11 -11 -15 6 -17 3 -12
-21 3 -15 2 -34 -4 -42 -8 -13 -10 -12 -10 4 0 11 -3 16 -6 13 -4 -3 -15 -2
-26 4 -27 15 -31 7 -14 -27 31 -61 13 -256 -25 -280 -6 -3 -7 -19 -4 -35 5
-22 3 -29 -8 -29 -10 0 -13 -7 -10 -20 4 -14 0 -20 -10 -20 -19 0 -37 -30 -37
-59 0 -25 -9 -27 -24 -5 -11 14 -13 14 -25 0 -11 -13 -9 -19 12 -40 30 -30 42
-62 27 -71 -16 -10 -12 -55 5 -55 11 0 12 -6 6 -22 -6 -16 -15 -22 -30 -20
-23 4 -29 -13 -8 -22 10 -5 10 -7 0 -12 -7 -3 -13 -12 -13 -20 0 -8 -6 -11
-15 -8 -9 4 -15 0 -15 -10 0 -9 -6 -16 -12 -16 -21 -1 -65 -42 -50 -47 9 -3 4
-13 -14 -30 -24 -22 -26 -26 -11 -35 33 -18 16 -25 -48 -21 -85 5 -134 26
-148 63 -11 29 -70 56 -99 45 -9 -4 -24 7 -39 29 -13 20 -29 36 -36 36 -20 0
-83 42 -82 54 5 28 -45 111 -101 167 -33 34 -60 65 -60 70 0 5 -22 23 -50 41
-27 18 -50 36 -50 40 0 5 -4 8 -10 8 -16 0 -12 -22 15 -72 28 -53 34 -89 12
-66 -8 7 -19 30 -26 51 -7 20 -17 39 -22 42 -5 4 -9 21 -9 39 0 31 -39 98 -40
69 0 -24 -16 -13 -28 20 -10 26 -14 29 -22 17 -5 -8 -7 -22 -5 -31 3 -9 -1
-22 -10 -29 -12 -10 -18 -5 -35 35 -11 26 -20 55 -20 64 0 10 -10 26 -21 37
l-21 19 7 -35 c4 -19 10 -37 14 -40 3 -3 7 -14 8 -25 1 -11 12 -57 24 -103 12
-45 19 -85 16 -88 -3 -4 -14 -3 -24 1 -10 5 -22 7 -26 6 -5 -1 -5 3 -2 9 4 7
-2 14 -14 17 -23 6 -44 45 -55 106 -4 20 -10 37 -14 37 -4 0 -8 14 -8 32 -1
18 -6 34 -13 36 -6 2 -11 12 -11 22 0 10 -7 31 -15 46 -8 16 -15 24 -15 17 0
-7 -7 -10 -15 -7 -19 8 -19 6 5 -41 11 -22 20 -45 20 -53 0 -8 9 -25 20 -39
11 -14 17 -30 14 -35 -4 -6 -2 -20 4 -31 26 -57 32 -81 32 -124 0 -42 -1 -45
-13 -28 -8 10 -26 19 -42 21 -27 3 -27 2 -20 -39 4 -23 9 -53 11 -67 2 -14 8
-43 13 -65 5 -22 7 -42 5 -45 -10 -9 -53 54 -66 97 -7 24 -22 56 -35 71 l-22
27 16 -50 c8 -27 18 -61 20 -75 l6 -25 -19 25 c-19 24 -24 33 -58 113 -20 45
-41 48 -49 7 -5 -21 -11 -28 -22 -24 -8 4 -15 1 -15 -6 0 -7 -8 -10 -20 -7
-13 3 -20 0 -20 -9 0 -20 -9 -17 -31 8 l-18 23 4 -42 c4 -48 -8 -64 -25 -33
-17 32 -29 14 -25 -38 2 -26 2 -38 -1 -27 -9 31 -45 65 -69 65 -24 0 -35 -30
-35 -96 0 -20 -5 -34 -12 -34 -16 0 -58 40 -58 56 0 6 -7 17 -15 24 -8 7 -15
26 -15 42 0 17 -4 27 -10 23 -6 -4 -8 -21 -4 -41 4 -22 2 -34 -5 -34 -6 0 -11
-7 -11 -16 0 -9 -6 -14 -12 -12 -7 3 -13 11 -13 19 0 8 -6 25 -13 38 -8 13
-12 34 -9 47 2 13 2 24 -1 24 -8 0 -32 -33 -42 -57 -14 -34 -25 -28 -39 18
-11 36 -15 40 -37 35 -19 -5 -24 -3 -24 14 0 24 -25 27 -34 4 -3 -9 -6 -27 -6
-41 0 -45 -25 -18 -30 33 -4 36 -10 50 -22 52 -20 4 -21 -1 -18 -76 2 -51 -13
-88 -31 -77 -12 8 -33 -36 -30 -62 1 -13 -2 -23 -8 -23 -18 0 -20 16 -5 44 7
16 14 40 14 55 0 15 7 36 15 47 17 22 20 60 5 69 -5 3 -10 2 -10 -4 0 -5 -8
-17 -17 -27 -10 -10 -18 -20 -19 -23 -4 -27 -18 -61 -25 -61 -5 0 -9 -6 -9
-14 0 -7 -10 -37 -22 -65 -17 -41 -23 -49 -30 -37 -7 12 -14 14 -25 7 -12 -6
-22 -4 -32 7 -15 14 -17 13 -22 -19 l-5 -34 -10 45 c-5 25 -6 70 -2 100 4 33
3 56 -3 58 -5 2 -7 8 -4 12 3 5 8 30 10 56 3 27 10 51 16 55 6 4 8 16 4 28 -3
11 -3 21 2 21 12 0 35 -39 28 -50 -3 -5 -1 -11 5 -15 5 -3 10 0 10 7 0 7 3 23
6 36 5 17 2 22 -12 22 -14 0 -15 3 -6 8 8 5 10 16 6 27 -7 18 -8 18 -15 -1 -7
-17 -8 -17 -8 -1 -1 11 -6 15 -12 11 -8 -5 -10 2 -6 21 6 34 -1 55 -18 55 -14
0 -29 -45 -20 -60 8 -13 -13 -90 -24 -90 -14 0 -19 24 -14 54 4 22 2 27 -8 24
-8 -3 -16 -13 -17 -24 -2 -10 -10 -24 -19 -31 -15 -11 -25 -76 -16 -100 3 -7
10 -10 17 -6 6 3 1 -5 -11 -19 -13 -13 -23 -29 -23 -35 0 -12 -28 -27 -45 -25
-6 1 -11 -7 -12 -18 -1 -11 4 -20 13 -20 18 0 17 -7 -5 -49 -19 -36 -26 -33
-41 18 -4 16 -4 33 0 37 5 5 11 28 13 51 5 37 3 42 -19 47 -27 7 -32 24 -10
32 16 6 28 42 17 49 -4 2 -18 -16 -31 -41 -18 -38 -20 -50 -11 -68 22 -40 -22
-105 -61 -91 -7 3 -27 -8 -45 -25 -18 -16 -34 -30 -37 -30 -9 0 -7 52 3 88 14
46 -5 41 -57 -15 -33 -37 -45 -45 -51 -34 -13 21 -65 -24 -84 -71 -12 -30 -21
-38 -41 -38 -14 0 -26 -6 -26 -12 0 -9 -3 -8 -9 2 -6 8 -8 17 -6 21 7 10 -47
31 -57 21 -14 -14 31 -123 68 -164 19 -21 47 -67 63 -102 16 -35 47 -89 70
-119 44 -61 78 -77 159 -77 23 0 42 -4 42 -10 0 -27 -162 -24 -204 3 -25 17
-92 124 -102 162 -3 13 -32 53 -63 87 -37 41 -67 87 -86 132 -16 39 -49 93
-73 120 -47 55 -145 198 -177 259 -23 44 -30 46 -47 10 -20 -42 -35 -38 -62
14 -13 27 -32 55 -40 62 -9 8 -16 20 -16 28 0 8 -4 11 -10 8 -16 -10 -12 -124
9 -217 20 -94 14 -133 -23 -133 -19 0 -37 46 -71 180 -24 93 -25 94 -40 58 -9
-20 -21 -33 -32 -33 -27 0 -173 73 -173 87 0 6 -20 19 -45 29 -25 9 -45 21
-45 27 0 15 -251 1 -400 -22 -181 -29 -220 -39 -264 -69 -58 -40 -376 -331
-490 -449 -157 -164 -168 -181 -227 -380 -35 -121 -40 -147 -36 -213 5 -95 23
-131 122 -240 94 -105 131 -157 151 -212 38 -108 44 -563 9 -680 -10 -32 -21
-58 -24 -58 -13 0 -26 16 -27 33 -1 13 3 16 16 12 14 -5 16 -1 12 22 -2 16
-11 36 -20 45 -12 15 -13 18 -1 18 8 0 1 8 -14 18 -25 15 -28 22 -24 54 3 20
0 39 -5 40 -5 2 -11 19 -12 38 -2 19 -8 45 -14 56 -6 12 -9 23 -7 26 2 2 -5
33 -16 69 -11 35 -23 78 -25 94 -3 17 -10 32 -15 33 -5 2 -9 17 -9 33 0 16 -4
29 -10 29 -5 0 -10 5 -10 11 0 18 -70 170 -85 186 -8 8 -15 20 -15 28 0 7 -7
16 -16 19 -9 3 -14 12 -11 19 3 7 -6 23 -18 35 -26 25 -27 25 -61 -49 l-22
-47 24 -24 c43 -43 45 -197 3 -239 -39 -39 -88 -20 -142 54 -12 18 -18 13 -71
-52 -32 -39 -61 -71 -65 -71 -3 0 -12 -18 -18 -39 -12 -36 -10 -43 12 -83 50
-86 22 -206 -48 -208 -42 0 -107 63 -107 105 0 7 16 36 35 64 l36 51 -20 22
c-18 19 -21 19 -27 5 -8 -22 -23 -22 -40 1 -11 15 -13 15 -19 1 -5 -14 -11
-15 -43 -4 -33 12 -38 11 -53 -6 -20 -23 -31 -25 -23 -4 7 17 -21 21 -31 5 -5
-8 -12 -7 -22 1 -12 10 -16 10 -24 -2 -6 -10 -9 -10 -9 -1 0 6 -6 12 -14 12
-9 0 -12 -8 -8 -27 4 -23 2 -25 -14 -18 -10 4 -27 8 -37 9 -10 0 -15 6 -12 13
3 10 0 11 -14 4 -10 -6 -21 -7 -25 -4 -13 13 -40 12 -60 -3 -11 -8 -29 -14
-39 -14 -13 0 -17 -5 -13 -18 5 -15 1 -17 -34 -14 -27 3 -41 10 -45 23 -5 14
-11 16 -29 9 -13 -5 -29 -4 -37 1 -22 14 -24 11 -24 -23 0 -39 -17 -46 -45
-16 l-21 23 -25 -32 c-15 -20 -30 -30 -39 -26 -8 3 -15 0 -15 -7 0 -6 -4 -8
-10 -5 -5 3 -10 0 -10 -8 0 -8 -7 -17 -14 -20 -11 -4 -13 -1 -10 11 5 15 4 15
-8 2 -26 -29 -46 -40 -62 -34 -9 3 -16 10 -16 16 0 5 5 6 10 3 6 -3 10 -1 10
4 0 14 -16 14 -41 1 -10 -6 -19 -20 -19 -30 0 -23 -20 -26 -39 -8 -10 11 -11
10 -5 -5 5 -13 2 -16 -10 -11 -9 3 -23 1 -31 -6 -8 -7 -22 -10 -30 -6 -8 3
-15 2 -15 -3 0 -7 -22 -20 -64 -40 -5 -2 -7 5 -4 16 4 13 0 19 -13 20 -29 3
-33 -17 -8 -40 20 -19 21 -22 6 -25 -20 -4 -45 18 -40 34 4 13 -24 27 -37 19
-5 -3 -7 -20 -5 -38 2 -17 1 -24 -1 -15 -7 22 -34 12 -34 -13 0 -12 -5 -16
-14 -13 -8 3 -12 12 -9 20 4 11 -1 11 -26 -2 -21 -10 -28 -20 -25 -32 4 -12 1
-11 -13 5 -15 19 -20 20 -31 7 -12 -13 -8 -18 10 -15 4 0 5 -6 1 -15 -3 -8
-15 -14 -27 -12 -14 2 -20 -2 -18 -11 2 -9 -4 -12 -18 -8 -15 4 -20 2 -17 -7
3 -7 2 -19 -3 -26 -6 -9 -11 -7 -21 11 -7 13 -11 26 -10 29 1 2 -2 6 -7 8 -6
2 -13 -7 -17 -20 -9 -27 -54 -67 -75 -67 -11 0 -11 2 2 7 12 5 15 11 8 22 -7
12 -12 12 -22 2 -16 -16 -26 -15 -30 3 -3 12 -7 12 -35 -2 -18 -8 -31 -19 -28
-23 2 -4 -3 -17 -11 -29 -13 -17 -19 -19 -30 -10 -7 6 -11 15 -8 20 3 5 3 13
-1 19 -7 12 -35 2 -35 -14 0 -6 -16 -11 -35 -12 -36 -1 -53 -9 -42 -20 4 -4
14 -1 22 6 11 9 19 10 26 3 7 -7 -1 -13 -26 -17 -29 -6 -40 -3 -49 10 -12 16
-13 16 -19 0 -5 -12 -13 -15 -27 -11 -13 4 -22 1 -26 -9 -7 -17 -34 -18 -46
-1 -5 6 -8 5 -8 -2 0 -7 -7 -10 -15 -7 -8 4 -15 1 -15 -6 0 -10 -3 -10 -15 0
-12 10 -19 10 -27 2 -8 -8 -16 -7 -30 1 -15 10 -20 9 -27 -2 -7 -11 -11 -10
-20 5 -6 11 -11 14 -11 8 0 -6 -15 -11 -32 -12 -18 0 -73 -3 -122 -6 -66 -3
-86 -2 -77 7 21 21 11 25 -26 11 -51 -18 -63 -17 -109 5 -21 10 -53 18 -71 16
-18 -2 -33 1 -33 6 0 5 -8 9 -18 9 -10 0 -22 3 -25 7 -4 4 -26 8 -49 11 -24 2
-45 8 -48 12 -3 5 -15 11 -25 13 -28 4 -46 17 -40 28 4 5 1 9 -5 9 -6 0 -13
-7 -16 -15 -8 -21 -26 -19 -22 3 2 12 -3 16 -19 15 -15 -2 -23 3 -23 13 0 10
-6 14 -14 11 -16 -6 -66 13 -66 25 0 4 -7 5 -15 2 -8 -4 -15 -2 -15 4 0 5 -7
13 -16 16 -12 5 -15 2 -10 -9 3 -9 2 -13 -4 -10 -6 3 -10 0 -11 -7 0 -7 -5 -1
-11 15 -5 15 -14 27 -19 27 -6 0 -7 5 -4 10 9 14 -8 13 -23 -2 -9 -9 -12 -8
-12 5 0 9 5 17 11 17 5 0 7 5 3 11 -5 8 -9 8 -14 -1 -10 -16 -76 4 -84 25 -3
8 -12 15 -19 15 -8 0 -26 9 -41 21 -14 11 -26 18 -26 14 0 -3 -10 0 -22 7 -13
7 -29 11 -36 10 -6 -2 -12 1 -12 6 0 13 -33 10 -42 -3 -12 -16 -9 -27 5 -19 6
4 4 -2 -7 -14 -10 -12 -27 -24 -37 -27 -20 -7 -16 -27 4 -24 7 1 20 1 30 0 16
-1 16 -3 -3 -23 -25 -27 -25 -34 0 -86 11 -22 20 -52 20 -66 0 -14 12 -36 30
-53 46 -43 40 -60 -26 -73 l-56 -12 7 -46 c4 -26 8 -63 10 -83 3 -51 9 -57 52
-49 21 4 93 18 160 30 l121 23 102 -58 c91 -52 121 -77 108 -90 -2 -2 -26 -6
-53 -8 -28 -2 -59 -8 -70 -14 -11 -5 -56 -16 -100 -23 -44 -7 -85 -17 -92 -22
-7 -5 -17 -7 -23 -3 -5 3 -10 2 -10 -3 0 -5 -21 -13 -47 -17 -27 -4 -53 -11
-60 -17 -15 -12 -53 7 -53 27 0 23 -19 17 -25 -8 -3 -12 -12 -74 -20 -137 -21
-158 -22 -165 -24 -165 -1 0 -4 -18 -5 -40 -2 -22 -11 -60 -20 -85 -10 -25
-19 -53 -21 -62 -2 -10 -15 -33 -29 -51 -14 -19 -26 -39 -26 -46 0 -7 -16 -28
-35 -47 -19 -18 -35 -38 -35 -43 0 -10 -131 -111 -175 -134 -16 -9 -43 -20
-60 -25 -37 -11 -172 -7 -188 6 -13 10 -83 33 -155 52 -70 18 -151 103 -240
255 -82 140 -117 244 -158 479 -14 78 -32 179 -41 226 -23 117 -23 397 0 497
59 259 171 445 314 521 95 50 181 75 236 68 53 -8 57 -2 33 55 -22 52 -95 349
-121 494 -54 290 -73 572 -44 665 17 56 63 103 159 160 41 25 122 82 180 128
58 46 132 98 165 116 33 18 85 47 115 64 56 30 154 57 171 46 18 -11 3 -26
-42 -44 -25 -9 -70 -35 -101 -58 -30 -23 -70 -45 -89 -49 -31 -6 -89 -44 -172
-115 l-32 -27 46 -1 c26 0 63 -7 84 -16 28 -11 65 -15 144 -12 l106 3 85 -65
c144 -110 266 -187 457 -287 192 -101 256 -118 327 -88 20 8 67 22 106 30 38
8 97 26 130 39 52 21 83 26 208 31 262 10 365 16 457 26 121 13 228 31 238 39
4 3 -6 24 -22 46 -49 68 -66 128 -66 234 0 86 3 100 30 148 36 66 87 98 182
116 62 11 68 14 68 37 0 15 9 29 24 38 19 10 21 15 10 22 -11 7 -9 9 7 9 12 0
29 11 38 24 19 29 69 30 131 2 22 -10 45 -19 50 -20 6 -1 15 -4 20 -8 107 -65
126 -66 540 -18 193 22 429 50 525 60 165 18 353 45 393 56 26 8 21 23 -23 76
-48 56 -83 129 -70 142 5 5 32 12 59 16 l50 6 98 -74 c54 -41 112 -88 130
-104 31 -30 32 -30 145 -30 210 1 946 97 976 127 3 3 7 19 8 36 1 17 21 79 45
137 42 104 45 109 143 206 119 116 192 157 337 186 62 12 98 24 107 37 28 38
53 96 71 166 10 40 30 99 44 132 14 33 46 125 72 205 26 80 64 183 85 230 20
47 45 110 55 140 10 30 33 94 51 141 32 84 50 152 74 289 18 103 39 176 71
247 16 35 29 71 29 78 0 8 32 81 70 164 39 82 70 153 70 158 0 16 91 157 135
208 23 28 59 84 80 125 43 86 81 140 98 140 19 0 67 56 67 78 0 25 23 44 44
36 11 -4 16 -1 16 13 0 27 62 85 83 77 10 -3 17 -1 17 6 0 6 17 27 37 46 32
30 42 35 70 29 29 -5 33 -3 33 14 0 23 63 56 88 46 7 -2 37 13 66 35 31 24 60
38 68 35 9 -4 18 1 22 11 5 13 9 14 20 4 12 -9 17 -7 25 9 6 11 11 27 11 35 0
20 14 20 30 1 9 -11 17 -12 31 -4 16 8 23 6 37 -11 16 -20 19 -21 31 -6 7 9
19 16 27 16 7 0 16 9 19 20 3 11 14 20 24 20 10 0 24 7 31 15 7 8 18 15 25 15
6 0 20 9 30 20 14 15 21 17 32 9 10 -9 13 -8 13 5 0 25 29 19 40 -9 5 -14 13
-25 17 -26 5 0 20 -3 34 -5 23 -4 29 1 43 36 19 48 38 53 29 8 -5 -33 -5 -32
60 31 l66 65 -6 -37 c-6 -41 1 -46 29 -20 17 15 19 15 32 -2 13 -18 14 -18 47
3 19 11 55 26 82 32 26 7 66 28 90 46 49 40 62 43 46 12z m-6064 -1788 c193
-42 348 -107 525 -222 100 -64 268 -198 325 -257 37 -40 39 -43 22 -56 -13
-10 -15 -14 -5 -18 11 -4 11 -8 0 -27 -8 -12 -9 -19 -3 -15 6 3 11 1 11 -4 0
-6 -5 -11 -10 -11 -6 0 -20 -9 -32 -19 -11 -11 -26 -17 -33 -14 -8 2 -29 -2
-47 -10 -46 -21 -97 -36 -142 -42 -21 -2 -44 -9 -51 -15 -6 -5 -15 -7 -18 -3
-4 3 -7 0 -7 -7 0 -11 -3 -10 -12 2 -16 19 -102 13 -95 -6 4 -10 -6 -11 -44
-3 -32 6 -58 6 -72 0 -12 -5 -39 -9 -59 -9 -21 1 -38 -2 -38 -5 0 -6 -28 -18
-52 -23 -3 0 -10 -4 -14 -8 -4 -4 -13 -3 -21 3 -9 9 -13 8 -13 0 0 -8 -6 -9
-17 -3 -25 13 -43 4 -36 -16 4 -14 3 -14 -5 -3 -12 16 -75 17 -80 2 -2 -6 -10
-11 -18 -11 -8 0 -26 -7 -39 -16 -20 -13 -25 -14 -25 -3 0 12 -2 12 -9 0 -5
-8 -16 -11 -29 -7 -14 5 -25 0 -36 -16 -9 -12 -16 -17 -16 -10 0 9 -5 10 -19
2 -27 -14 -34 -13 -27 5 5 13 2 13 -19 -1 -14 -9 -25 -21 -25 -27 0 -6 -8 -4
-17 5 -15 16 -17 16 -28 -5 -6 -12 -17 -21 -24 -19 -7 1 -19 -4 -27 -13 -10
-10 -26 -13 -45 -10 -20 4 -29 1 -29 -8 0 -14 -38 -16 -60 -2 -9 5 -11 4 -6
-3 4 -7 4 -12 -1 -13 -67 -6 -90 -13 -108 -34 -15 -16 -25 -21 -36 -15 -13 8
-67 0 -123 -16 -12 -4 -16 -2 -12 5 5 7 1 9 -8 5 -9 -3 -16 -10 -16 -15 0 -5
-7 -9 -15 -9 -8 0 -15 5 -15 10 0 7 -7 7 -20 0 -11 -6 -26 -8 -32 -4 -7 5 -9
2 -6 -7 4 -11 -3 -14 -35 -12 -26 1 -48 -4 -58 -13 -11 -10 -32 -14 -62 -11
-27 2 -48 -1 -51 -7 -3 -7 -9 -5 -15 4 -9 13 -11 12 -11 -5 0 -16 -6 -20 -27
-19 -15 0 -39 -5 -53 -13 -14 -7 -38 -13 -53 -13 -16 0 -35 -6 -43 -14 -7 -8
-32 -17 -54 -21 -22 -4 -40 -11 -40 -16 0 -14 -22 -11 -41 6 -15 14 -18 14
-32 0 -9 -8 -22 -15 -29 -15 -8 0 -20 -6 -26 -12 -7 -7 -20 -13 -30 -13 -10 0
-16 -7 -16 -18 2 -16 0 -17 -20 -3 -20 13 -24 12 -35 -6 -7 -12 -18 -17 -28
-14 -12 5 -13 4 -5 -7 7 -8 9 -17 5 -20 -11 -12 -23 -8 -23 8 0 8 -8 15 -17
15 -14 0 -15 -2 -5 -9 11 -7 11 -9 -2 -14 -9 -4 -16 -2 -16 2 0 5 -6 11 -14
14 -9 4 -12 0 -9 -13 4 -15 1 -18 -16 -13 -16 4 -21 1 -21 -13 -1 -17 -3 -16
-21 5 -22 27 -39 21 -18 -6 11 -15 11 -16 -1 -5 -17 14 -54 16 -45 2 8 -13
-11 -13 -36 1 -11 5 -17 14 -14 19 11 17 17 54 19 105 0 28 6 53 11 57 6 4 2
8 -7 8 -10 0 -19 8 -19 18 -4 48 -3 68 3 78 4 6 9 19 11 30 2 10 7 26 10 34 3
8 14 40 25 71 40 118 218 353 360 475 218 188 449 310 719 379 150 39 207 44
463 40 195 -2 252 -7 335 -25z m5975 -510 c0 -5 -7 -10 -16 -10 -8 0 -12 5 -9
10 3 6 10 10 16 10 5 0 9 -4 9 -10z m-516 -63 c34 -25 -8 -66 -54 -52 -25 8
-26 40 -2 54 23 14 35 13 56 -2z m1324 -6 c22 -20 29 -41 13 -41 -5 0 -12 9
-16 19 -3 11 -12 18 -19 15 -7 -3 -13 2 -13 11 0 19 7 19 35 -4z m-5888 -11
c0 -5 -2 -10 -4 -10 -3 0 -8 5 -11 10 -3 6 -1 10 4 10 6 0 11 -4 11 -10z
m6494 -15 c3 -8 2 -15 -3 -15 -5 0 -14 7 -21 15 -10 12 -10 15 3 15 8 0 17 -7
21 -15z m-1001 -37 c9 -5 17 -13 17 -18 0 -6 7 -10 15 -10 8 0 15 -5 15 -11 0
-6 -9 -8 -20 -4 -11 3 -20 2 -20 -4 0 -6 -14 -7 -34 -4 -39 6 -56 -11 -26 -27
11 -6 20 -15 20 -21 0 -6 -4 -7 -10 -4 -5 3 -20 -1 -32 -9 -19 -12 -31 -13
-67 -4 -34 9 -48 8 -64 -1 -17 -11 -19 -11 -14 4 4 9 3 13 -2 10 -5 -3 -22 7
-38 21 l-28 27 54 -6 c29 -4 58 -10 65 -15 17 -14 84 -24 90 -13 8 12 -12 27
-48 35 -145 35 -108 82 54 68 30 -2 63 -9 73 -14z m455 3 c3 -8 -1 -12 -9 -9
-7 2 -15 10 -17 17 -3 8 1 12 9 9 7 -2 15 -10 17 -17z m694 -17 c22 -12 33
-13 36 -5 2 6 8 11 14 11 6 0 6 -6 -2 -15 -6 -8 -9 -19 -5 -26 5 -7 1 -9 -11
-6 -11 3 -46 13 -79 22 -33 10 -66 23 -74 30 -12 12 -6 13 38 10 28 -3 66 -12
83 -21z m98 -24 c0 -5 -4 -10 -10 -10 -5 0 -10 5 -10 10 0 6 5 10 10 10 6 0
10 -4 10 -10z m-2633 -25 c-7 -7 -16 -10 -21 -5 -12 12 2 30 19 24 11 -5 12
-9 2 -19z m2053 -52 c0 -17 -4 -16 -42 3 -16 9 -40 13 -52 10 -18 -4 -66 22
-66 36 0 2 36 -5 80 -16 51 -12 80 -24 80 -33z m-2035 27 c3 -5 1 -10 -4 -10
-6 0 -11 5 -11 10 0 6 2 10 4 10 3 0 8 -4 11 -10z m2285 -37 c0 -7 9 -18 20
-25 11 -7 20 -20 20 -28 0 -9 5 -21 12 -28 7 -7 8 -12 4 -12 -5 0 -1 -11 7
-24 21 -31 11 -39 -24 -20 -31 15 -37 29 -16 37 8 3 5 11 -10 24 -13 11 -23
25 -23 30 0 6 -13 16 -30 23 -31 13 -34 18 -24 43 4 12 11 13 35 4 16 -6 29
-17 29 -24z m-1100 -23 c0 -11 -6 -20 -14 -20 -9 0 -12 7 -9 20 3 11 9 20 14
20 5 0 9 -9 9 -20z m126 -7 c-7 -7 -26 7 -26 19 0 6 6 6 15 -2 9 -7 13 -15 11
-17z m762 16 c-2 -6 -8 -10 -13 -10 -5 0 -11 4 -13 10 -2 6 4 11 13 11 9 0 15
-5 13 -11z m40 -15 c19 -6 52 -49 52 -69 0 -12 -38 -4 -44 10 -3 8 -12 15 -21
15 -8 0 -15 4 -15 9 0 5 -3 16 -6 25 -7 17 -1 19 34 10z m-752 -29 c10 -8 15
-14 9 -14 -5 0 -19 6 -29 14 -11 8 -15 15 -10 15 6 0 19 -7 30 -15z m-140 -9
c3 -8 12 -12 20 -9 9 3 14 -1 14 -12 0 -10 -5 -14 -12 -11 -7 3 -21 9 -30 12
-10 4 -18 13 -18 20 0 18 19 18 26 0z m209 -36 c3 -5 2 -10 -4 -10 -5 0 -13 5
-16 10 -3 6 -2 10 4 10 5 0 13 -4 16 -10z m845 0 c13 -9 13 -10 0 -9 -8 0 -24
4 -35 9 l-20 9 20 0 c11 0 27 -4 35 -9z m-2350 -12 c0 -6 -3 -8 -6 -5 -4 3
-15 2 -25 -3 -11 -6 -20 -6 -23 -1 -7 10 9 19 37 20 9 1 17 -4 17 -11z m2055
-59 c11 -17 -1 -21 -15 -4 -8 9 -8 15 -2 15 6 0 14 -5 17 -11z m-81 -18 c10
-11 24 -17 31 -15 14 6 72 -43 62 -52 -3 -3 -17 2 -31 11 -19 12 -30 14 -39 7
-15 -13 -47 8 -47 30 0 8 -5 19 -12 26 -9 9 -9 12 3 12 9 0 24 -9 33 -19z
m-559 -281 c3 -5 1 -10 -4 -10 -6 0 -11 5 -11 10 0 6 2 10 4 10 3 0 8 -4 11
-10z m-5565 -30 c12 -7 12 -12 -5 -29 -28 -32 -164 -116 -267 -166 -125 -61
-140 -59 -94 13 24 38 94 107 138 136 67 44 192 69 228 46z m5507 -193 c4 -21
3 -21 -11 -2 -8 11 -12 24 -9 28 7 12 16 0 20 -26z m-193 -269 c18 -29 25
-110 10 -115 -6 -2 -17 11 -25 29 -7 18 -17 36 -22 39 -11 8 1 69 14 69 5 0
15 -10 23 -22z m-6284 -332 c0 -18 -76 -55 -100 -49 -16 4 -18 9 -9 25 18 34
109 54 109 24z m4760 -456 c-6 -11 -16 -20 -22 -20 -6 0 -3 9 7 20 10 11 20
20 22 20 2 0 -1 -9 -7 -20z m1658 -123 c14 -40 15 -47 4 -47 -10 0 -32 45 -32
65 0 26 16 16 28 -18z m-1654 -48 c-3 -5 -10 -7 -15 -3 -5 3 -7 10 -3 15 3 5
10 7 15 3 5 -3 7 -10 3 -15z m501 3 c-6 -4 -16 -18 -22 -32 -6 -14 -12 -19
-12 -12 -1 20 18 52 32 52 8 0 8 -3 2 -8z m-480 -48 c-14 -34 -17 -37 -27 -21
-9 18 -10 18 -23 0 -20 -27 -30 -7 -11 22 9 14 25 25 36 25 10 0 22 5 25 11
15 24 15 -2 0 -37z m-431 -69 c-10 -16 -20 -23 -22 -16 -4 12 28 55 35 47 3
-2 -3 -17 -13 -31z m402 -32 c-3 -54 -35 -144 -53 -150 -8 -3 -9 7 -2 34 4 21
6 47 2 58 -3 11 -2 17 3 12 9 -8 34 46 34 74 0 11 4 19 9 19 5 0 8 -21 7 -47z
m704 -2 l-1 -26 -19 24 c-21 25 -18 44 5 34 8 -3 15 -17 15 -32z m-1039 -10
c-8 -5 -11 -16 -8 -25 3 -8 0 -19 -7 -23 -7 -5 -19 -25 -25 -45 -13 -39 -37
-66 -49 -54 -3 4 1 21 11 37 9 17 17 37 17 44 0 18 49 75 63 75 7 0 7 -4 -2
-9z m-107 -25 c-6 -16 -24 -23 -24 -8 0 10 22 33 27 28 2 -2 1 -11 -3 -20z
m1425 -36 c1 -13 0 -13 -9 0 -5 8 -9 24 -9 35 l0 20 9 -20 c5 -11 9 -27 9 -35z
m-317 -82 l23 -33 -32 25 c-32 25 -41 40 -24 40 5 0 20 -15 33 -32z m-876 -17
c-9 -10 -16 -23 -16 -29 0 -6 -5 -14 -11 -18 -8 -4 -9 1 -4 17 12 36 38 74 43
60 2 -7 -3 -20 -12 -30z m529 -117 c-22 -8 -71 -21 -110 -30 -38 -8 -88 -20
-110 -25 -64 -17 -122 -22 -141 -11 -29 16 18 35 59 24 25 -7 48 -5 93 9 54
18 198 47 234 47 8 0 -3 -6 -25 -14z m535 -84 c0 -5 -2 -10 -4 -10 -3 0 -8 5
-11 10 -3 6 -1 10 4 10 6 0 11 -4 11 -10z m117 -65 c67 -26 99 -45 75 -45 -24
0 -137 42 -152 56 -21 21 -1 18 77 -11z m178 -72 l30 -14 -29 6 c-16 3 -43 12
-60 20 l-31 14 30 -6 c17 -3 44 -12 60 -20z m-4632 -1003 c3 -11 1 -18 -4 -14
-5 3 -9 12 -9 20 0 20 7 17 13 -6z m352 -34 c64 -27 100 -153 66 -234 -25 -60
-95 -55 -138 9 -49 74 -47 179 3 218 32 25 26 24 69 7z m-965 -9 c0 -8 -6 -14
-14 -14 -8 0 -12 6 -9 14 3 7 9 13 14 13 5 0 9 -6 9 -13z m-133 -43 c-3 -3
-12 -4 -19 -1 -8 3 -5 6 6 6 11 1 17 -2 13 -5z m-2662 -84 c3 -5 2 -10 -4 -10
-5 0 -13 5 -16 10 -3 6 -2 10 4 10 5 0 13 -4 16 -10z m4160 -130 c3 -5 2 -10
-4 -10 -5 0 -13 5 -16 10 -3 6 -2 10 4 10 5 0 13 -4 16 -10z m-1001 -122 c14
-27 26 -51 26 -53 0 -1 -17 6 -37 16 -23 12 -58 19 -90 19 -29 0 -53 3 -53 8
1 18 96 73 115 66 7 -3 25 -28 39 -56z m3419 -50 c-10 -3 -29 -7 -43 -7 -23
-1 -25 3 -27 51 l-2 52 45 -45 c38 -37 42 -45 27 -51z m-2401 50 c-7 -7 -12
-8 -12 -2 0 14 12 26 19 19 2 -3 -1 -11 -7 -17z m-2472 2 c0 -5 -9 -10 -21
-10 -11 0 -17 5 -14 10 3 6 13 10 21 10 8 0 14 -4 14 -10z"/>
<path d="M13820 6730 c-13 -8 -12 -10 3 -10 9 0 17 5 17 10 0 12 -1 12 -20 0z"/>
<path d="M11093 6632 c-48 -31 -56 -275 -12 -380 25 -60 52 -74 92 -47 33 21
49 88 49 201 0 75 -4 93 -31 148 -19 40 -40 67 -56 74 -30 14 -27 14 -42 4z"/>
<path d="M14065 6610 c-8 -13 25 -13 45 0 12 8 9 10 -12 10 -15 0 -30 -4 -33
-10z"/>
<path d="M14131 6561 c-14 -4 -26 -11 -28 -17 -5 -14 93 -59 123 -56 14 1 22
-2 19 -8 -3 -5 16 -15 42 -23 36 -11 49 -19 51 -36 3 -17 8 -21 25 -15 18 5
20 4 10 -7 -19 -19 -16 -25 23 -48 48 -29 66 -21 30 12 -16 15 -24 27 -18 27
6 0 13 -4 16 -9 8 -12 56 -1 56 14 0 14 -58 45 -84 45 -9 0 -25 9 -36 20 -12
12 -34 20 -52 20 -25 0 -39 8 -57 33 -37 50 -69 62 -120 48z m64 -21 c3 -5 1
-10 -4 -10 -6 0 -11 5 -11 10 0 6 2 10 4 10 3 0 8 -4 11 -10z"/>
<path d="M13390 6520 c0 -5 5 -10 10 -10 6 0 10 5 10 10 0 6 -4 10 -10 10 -5
0 -10 -4 -10 -10z"/>
<path d="M15306 6453 c-3 -3 -6 -13 -6 -21 0 -11 3 -12 14 -3 7 6 22 8 32 5
23 -9 16 -1 -12 14 -12 6 -24 8 -28 5z"/>
<path d="M13076 6375 c-6 -16 3 -19 28 -9 22 8 20 24 -3 24 -10 0 -21 -7 -25
-15z"/>
<path d="M13130 6380 c0 -5 5 -10 10 -10 6 0 10 5 10 10 0 6 -4 10 -10 10 -5
0 -10 -4 -10 -10z"/>
<path d="M13670 6380 c0 -5 5 -10 10 -10 6 0 10 5 10 10 0 6 -4 10 -10 10 -5
0 -10 -4 -10 -10z"/>
<path d="M14115 6369 c10 -15 55 -30 68 -22 6 4 -4 12 -24 19 -43 16 -52 17
-44 3z"/>
<path d="M13889 6351 c14 -10 31 -17 39 -14 18 7 4 19 -33 27 l-30 7 24 -20z"/>
<path d="M13480 6346 c0 -8 5 -18 10 -21 6 -3 10 3 10 14 0 12 -4 21 -10 21
-5 0 -10 -6 -10 -14z"/>
<path d="M15415 6340 c3 -5 10 -10 16 -10 5 0 9 5 9 10 0 6 -7 10 -16 10 -8 0
-12 -4 -9 -10z"/>
<path d="M14698 6295 c-6 -28 10 -45 22 -25 5 9 19 4 51 -17 24 -15 45 -31 47
-35 2 -4 10 -4 18 -1 17 6 57 -26 51 -41 -3 -6 6 -12 19 -12 17 -1 24 3 24 17
0 21 -80 72 -118 74 -13 0 -29 8 -36 16 -12 17 -57 49 -67 49 -4 0 -9 -11 -11
-25z"/>
<path d="M14370 6300 c0 -5 5 -10 11 -10 5 0 7 5 4 10 -3 6 -8 10 -11 10 -2 0
-4 -4 -4 -10z"/>
<path d="M12000 6274 c0 -8 5 -12 10 -9 6 3 10 10 10 16 0 5 -4 9 -10 9 -5 0
-10 -7 -10 -16z"/>
<path d="M11960 6225 c0 -8 5 -15 10 -15 6 0 10 7 10 15 0 8 -4 15 -10 15 -5
0 -10 -7 -10 -15z"/>
<path d="M13014 6038 c-9 -14 -1 -18 37 -22 19 -2 47 -7 62 -11 36 -10 45 0
15 16 -31 17 -107 28 -114 17z"/>
<path d="M12105 5820 c-3 -5 -1 -10 4 -10 6 0 11 5 11 10 0 6 -2 10 -4 10 -3
0 -8 -4 -11 -10z"/>
<path d="M13030 5787 c0 -8 11 -24 24 -36 22 -21 24 -21 30 -4 5 12 0 24 -14
35 -26 21 -40 23 -40 5z"/>
<path d="M13148 5554 c-6 -9 -1 -70 7 -92 9 -23 28 -8 31 25 4 32 -27 85 -38
67z"/>
<path d="M13040 5540 c0 -5 5 -10 10 -10 6 0 10 5 10 10 0 6 -4 10 -10 10 -5
0 -10 -4 -10 -10z"/>
<path d="M13190 5406 c0 -9 5 -16 10 -16 6 0 10 4 10 9 0 6 -4 13 -10 16 -5 3
-10 -1 -10 -9z"/>
<path d="M12992 5339 c2 -7 10 -15 17 -17 8 -3 12 1 9 9 -2 7 -10 15 -17 17
-8 3 -12 -1 -9 -9z"/>
<path d="M13197 5224 c-11 -11 -8 -26 3 -19 5 3 7 0 4 -8 -3 -8 2 -19 9 -26
12 -9 16 -8 21 6 7 18 -25 59 -37 47z"/>
<path d="M12550 5195 c0 -8 7 -15 15 -15 9 0 12 6 9 15 -4 8 -10 15 -15 15 -5
0 -9 -7 -9 -15z"/>
<path d="M12605 5151 c-7 -12 12 -24 25 -16 11 7 4 25 -10 25 -5 0 -11 -4 -15
-9z"/>
<path d="M12760 5003 c0 -32 15 -61 26 -50 13 13 15 49 3 63 -18 22 -29 16
-29 -13z"/>
<path d="M12410 4970 c0 -5 5 -10 10 -10 6 0 10 5 10 10 0 6 -4 10 -10 10 -5
0 -10 -4 -10 -10z"/>
<path d="M12440 4936 c0 -19 26 -40 35 -26 3 5 -1 10 -10 10 -11 0 -15 5 -11
15 3 8 1 15 -4 15 -6 0 -10 -6 -10 -14z"/>
<path d="M10202 4914 c-21 -14 -22 -18 -9 -33 24 -27 50 -83 68 -146 15 -56
19 -60 44 -58 15 1 30 5 34 8 3 4 7 43 7 88 1 81 -10 135 -30 149 -20 14 -91
8 -114 -8z"/>
<path d="M13006 4911 c-3 -5 -3 -16 0 -25 4 -12 0 -16 -15 -16 -22 0 -29 -24
-11 -35 18 -11 49 -82 52 -117 1 -18 14 -62 28 -98 15 -36 28 -68 28 -72 1 -5
5 -9 10 -10 14 -5 13 38 -2 68 -17 32 -8 41 24 24 11 -6 25 -8 30 -5 15 9 12
51 -4 65 -8 6 -23 31 -32 56 -13 35 -22 44 -40 44 -13 0 -23 3 -22 8 0 4 -2
15 -7 26 -5 12 -3 21 6 27 12 8 11 11 -3 20 -10 5 -18 16 -18 24 0 17 -17 28
-24 16z m114 -215 c0 -5 -7 -3 -15 4 -8 7 -12 17 -9 22 7 10 24 -9 24 -26z
m-50 3 c0 -11 -4 -17 -10 -14 -5 3 -10 13 -10 21 0 8 5 14 10 14 6 0 10 -9 10
-21z"/>
<path d="M13068 4833 c7 -3 16 -2 19 1 4 3 -2 6 -13 5 -11 0 -14 -3 -6 -6z"/>
<path d="M12295 4810 c3 -5 8 -10 11 -10 2 0 4 5 4 10 0 6 -5 10 -11 10 -5 0
-7 -4 -4 -10z"/>
<path d="M12580 4794 c0 -6 7 -19 16 -30 14 -18 14 -18 3 6 -14 31 -19 36 -19
24z"/>
<path d="M12984 4690 c3 -14 6 -28 6 -32 0 -5 5 -8 11 -8 12 0 2 39 -13 55 -7
7 -9 2 -4 -15z"/>
<path d="M13006 4625 c4 -8 8 -15 10 -15 2 0 4 7 4 15 0 8 -4 15 -10 15 -5 0
-7 -7 -4 -15z"/>
<path d="M13162 4609 c2 -7 10 -15 17 -17 8 -3 12 1 9 9 -2 7 -10 15 -17 17
-8 3 -12 -1 -9 -9z"/>
<path d="M10513 4514 c-12 -24 -11 -48 2 -54 15 -8 31 48 18 61 -8 8 -14 6
-20 -7z"/>
<path d="M12686 4507 c3 -10 9 -15 12 -12 3 3 0 11 -7 18 -10 9 -11 8 -5 -6z"/>
<path d="M12295 4388 c-3 -18 -9 -41 -11 -50 -8 -28 26 -10 37 19 6 18 5 30
-5 45 -13 19 -14 18 -21 -14z"/>
<path d="M12651 4364 c0 -11 3 -14 6 -6 3 7 2 16 -1 19 -3 4 -6 -2 -5 -13z"/>
<path d="M11950 4340 c0 -5 7 -10 15 -10 8 0 15 5 15 10 0 6 -7 10 -15 10 -8
0 -15 -4 -15 -10z"/>
<path d="M12250 4321 c0 -11 -5 -23 -10 -26 -12 -7 5 -35 21 -35 12 0 11 67
-1 75 -5 3 -10 -3 -10 -14z"/>
<path d="M11961 4304 c0 -11 3 -14 6 -6 3 7 2 16 -1 19 -3 4 -6 -2 -5 -13z"/>
<path d="M13830 4301 c0 -13 29 -35 37 -28 7 8 -15 37 -28 37 -5 0 -9 -4 -9
-9z"/>
<path d="M13892 4286 c-2 -29 8 -38 28 -26 13 8 12 13 -5 30 l-21 20 -2 -24z"/>
<path d="M8755 4254 c-71 -13 -180 -28 -241 -34 -60 -5 -128 -16 -150 -23 -37
-13 -39 -16 -38 -54 0 -24 7 -48 17 -57 9 -9 26 -34 38 -56 13 -22 27 -41 33
-41 6 -1 18 -3 26 -4 8 -1 28 -3 43 -4 24 -1 27 -4 22 -21 -4 -12 -2 -26 3
-33 16 -20 31 -140 20 -154 -7 -9 -7 -13 1 -13 7 0 9 -5 5 -12 -4 -7 -7 -30
-7 -52 1 -23 -3 -46 -9 -53 -5 -7 -5 -14 1 -17 6 -4 8 -13 4 -21 -4 -11 -1
-13 13 -8 14 5 16 3 11 -11 -4 -9 -3 -15 2 -11 5 3 12 1 15 -3 3 -5 16 -7 28
-5 24 5 82 85 84 116 2 23 -13 32 -30 18 -10 -9 -15 -8 -20 4 -4 12 -12 14
-27 10 -21 -7 -22 -5 -14 46 4 30 7 62 7 71 0 9 6 22 14 29 8 6 14 17 14 24 0
7 7 16 16 19 8 3 12 10 9 16 -3 5 0 10 7 10 17 0 173 162 194 201 14 28 54
135 54 146 0 4 6 5 -145 -23z"/>
<path d="M11763 4272 c-8 -5 -8 -12 3 -26 17 -24 27 -16 17 12 -5 13 -13 18
-20 14z"/>
<path d="M13965 4270 c-3 -5 -1 -10 4 -10 6 0 11 5 11 10 0 6 -2 10 -4 10 -3
0 -8 -4 -11 -10z"/>
<path d="M12318 4253 c-6 -22 0 -43 13 -43 11 0 12 31 0 48 -6 11 -9 10 -13
-5z"/>
<path d="M12482 4248 c1 -17 7 -24 15 -21 11 4 11 9 1 22 -7 9 -14 18 -15 20
-2 3 -2 -7 -1 -21z"/>
<path d="M11775 4169 c-4 -11 -4 -23 0 -27 7 -7 25 17 25 36 0 20 -18 14 -25
-9z"/>
<path d="M10900 4140 c6 -11 15 -18 21 -15 5 4 3 12 -5 21 -21 20 -28 17 -16
-6z"/>
<path d="M7410 4044 c-33 -23 -289 -274 -301 -296 -9 -17 22 -86 74 -162 29
-41 104 -86 145 -86 98 0 162 46 187 135 16 52 16 73 5 204 -15 173 -27 215
-61 219 -13 1 -35 -5 -49 -14z"/>
<path d="M8320 3090 c0 -5 5 -10 11 -10 5 0 7 5 4 10 -3 6 -8 10 -11 10 -2 0
-4 -4 -4 -10z"/>
<path d="M8220 2530 c0 -5 5 -10 11 -10 5 0 7 5 4 10 -3 6 -8 10 -11 10 -2 0
-4 -4 -4 -10z"/>
<path d="M4650 2415 c0 -8 4 -15 10 -15 5 0 7 7 4 15 -4 8 -8 15 -10 15 -2 0
-4 -7 -4 -15z"/>
<path d="M4605 2400 c-3 -6 1 -7 9 -4 18 7 21 14 7 14 -6 0 -13 -4 -16 -10z"/>
<path d="M4620 2380 c-13 -8 -13 -13 -2 -31 11 -18 12 -23 1 -30 -23 -14 -5
-16 21 -2 14 7 19 13 12 13 -7 0 -11 4 -8 9 4 5 3 18 -2 30 -5 15 -11 18 -22
11z"/>
<path d="M8903 2313 c-7 -3 -13 -12 -13 -21 0 -15 2 -15 17 1 18 18 16 27 -4
20z"/>
<path d="M6535 2130 c-3 -5 -2 -10 4 -10 5 0 13 5 16 10 3 6 2 10 -4 10 -5 0
-13 -4 -16 -10z"/>
<path d="M6360 2090 c0 -5 7 -10 16 -10 8 0 12 5 9 10 -3 6 -10 10 -16 10 -5
0 -9 -4 -9 -10z"/>
<path d="M4127 1621 c-4 -17 -3 -21 5 -13 5 5 8 16 6 23 -3 8 -7 3 -11 -10z"/>
<path d="M4123 1533 c4 -89 57 -177 88 -146 9 9 5 20 -19 47 -31 35 -52 90
-52 134 0 12 -4 22 -9 22 -6 0 -9 -26 -8 -57z"/>
<path d="M3899 1458 c-2 -79 2 -103 23 -145 16 -32 27 -43 44 -43 30 0 38 14
17 31 -26 22 -63 110 -63 151 0 53 -20 59 -21 6z"/>
<path d="M3885 1168 c7 -18 16 -45 19 -60 4 -19 21 -35 60 -57 57 -33 97 -38
134 -17 23 12 21 14 -39 36 -45 16 -80 38 -120 76 -30 30 -59 54 -62 54 -4 0
0 -15 8 -32z"/>
</g>
</svg>
